<svg width="64" height="64" viewBox="0 0 112 90" fill="none" xmlns="http://www.w3.org/2000/svg">
  <path d="M34.2 58.4H27.8C17.9 58.4 10 50.5 10 40.9C10 31.3 17.9 23.6 27.8 23.6C30.2 12.7 40.1 5 51.7 5C64.5 5 75 14 76.5 26.1C84.7 26.7 91 33.3 91 41.4C91 50.8 83.6 58.4 73.9 58.4H68.3" stroke="url(#skywareGradient)" stroke-width="8" stroke-linecap="round" stroke-linejoin="round"/>
  <path d="M43 38.8L34 45.8L43 52.8" stroke="#2563EB" stroke-width="4.8" stroke-linecap="round" stroke-linejoin="round"/>
  <path d="M59 38.8L68 45.8L59 52.8" stroke="#2563EB" stroke-width="4.8" stroke-linecap="round" stroke-linejoin="round"/>
  <path d="M54.6 36.5L48.4 55.1" stroke="#2563EB" stroke-width="4.8" stroke-linecap="round"/>
  <defs>
    <linearGradient id="skywareGradient" x1="10" y1="31.7" x2="91" y2="31.7" gradientUnits="userSpaceOnUse">
      <stop stop-color="#38BDF8"/>
      <stop offset="1" stop-color="#2563EB"/>
    </linearGradient>
  </defs>
</svg>
